<svg id="Layer_1" data-name="Layer 1" xmlns="http://www.w3.org/2000/svg" viewBox="0 0 32 32">
  <path d="M18.842,12.184H13.158a1,1,0,0,0-1,1v5.631a1,1,0,0,0,1,1h5.684a1,1,0,0,0,1-1V13.184A1,1,0,0,0,18.842,12.184Zm-1,5.631H14.158V14.184h3.684Z" id="id_105" style="fill: #ffffff;"></path>
  <path d="M29,18.184V16a1,1,0,0,0-1-1H23V12h2.184a3,3,0,1,0,0-2h-2.2A.994.994,0,0,0,22,9.056V5h1.184a3,3,0,1,0,0-2H21a1,1,0,0,0-1,1V9.056H17V6.816a3,3,0,1,0-2,0v2.24H12V4a1,1,0,0,0-1-1H8.816a3,3,0,1,0,0,2H10V9.056a1,1,0,0,0-1,1V15H5V13.816a3,3,0,1,0-2,0V16a1,1,0,0,0,1,1H9v3H6.816a3,3,0,1,0,0,2H9.011a.994.994,0,0,0,.989.944h1v2.24a3,3,0,1,0,2,0v-2.24h4V28a1,1,0,0,0,1,1h2.184a3,3,0,1,0,0-2H19V22.944h3a1,1,0,0,0,1-1V17h4v1.184a3,3,0,1,0,2,0ZM26,3a1,1,0,1,1-1,1A1,1,0,0,1,26,3ZM16,3a1,1,0,1,1-1,1A1,1,0,0,1,16,3ZM6,5A1,1,0,1,1,7,4,1,1,0,0,1,6,5ZM4,10a1,1,0,1,1-1,1A1,1,0,0,1,4,10Zm8,19a1,1,0,1,1,1-1A1,1,0,0,1,12,29Zm11-2a1,1,0,1,1-1,1A1,1,0,0,1,23,27Zm5-17a1,1,0,1,1-1,1A1,1,0,0,1,28,10ZM4,22a1,1,0,1,1,1-1A1,1,0,0,1,4,22Zm17-1.056H11V11.056H21ZM28,22a1,1,0,1,1,1-1A1,1,0,0,1,28,22Z" id="id_106" style="fill: #ffffff;"></path>
</svg>
