<?xml version="1.0" encoding="UTF-8" standalone="no"?>
<svg xmlns="http://www.w3.org/2000/svg" viewBox="0 0 64 64">
  <g id="Layer_16" data-name="Layer 16">
    <path d="M29,29.33a.5.5,0,0,0-.11-.53l-5.48-5.48c.28-.32.55-.61.82-.88,6.65-6.66,17.68-7.35,27.46-1.72a.5.5,0,0,0,.62-.11.5.5,0,0,0,0-.64,34.9,34.9,0,0,0-2.73-3.08C38.87,6.18,23,4.68,14.1,13.54l-.24.25L8.34,8.28a.49.49,0,0,0-.85.32L6.28,30.34a.49.49,0,0,0,.14.38.47.47,0,0,0,.35.15h0l21.74-1.22A.49.49,0,0,0,29,29.33ZM7.3,29.84,8.43,9.77l5.09,5.09a.42.42,0,0,0,.36.15.52.52,0,0,0,.36-.16l.57-.61c8.47-8.46,23.75-7,34.06,3.35.35.35.68.7,1,1.07C40.32,14.15,30,15.27,23.5,21.73c-.38.39-.78.82-1.17,1.3a.48.48,0,0,0,0,.67l5,5Z" fill="#ffffff"/>
    <path d="M34.18,12.84a.49.49,0,0,0-.38-.5,22.17,22.17,0,0,0-5-.59,16.37,16.37,0,0,0-11.86,4.61l-.49.53L14,19.55l-2.12-2.12a.49.49,0,0,0-.85.32l-.47,8.35a.49.49,0,0,0,.14.38.55.55,0,0,0,.36.15h0l8.34-.47a.5.5,0,0,0,.44-.32.49.49,0,0,0-.11-.53L18,23.56,20,21.11c.45-.54.91-1.05,1.36-1.5a22.8,22.8,0,0,1,12.39-6.29A.49.49,0,0,0,34.18,12.84ZM20.68,18.9c-.48.48-1,1-1.43,1.57l-2.33,2.8A.5.5,0,0,0,17,24l1.27,1.27-6.67.38.37-6.68,1.71,1.71a.45.45,0,0,0,.36.14.52.52,0,0,0,.36-.16l2.82-3c.15-.17.31-.34.47-.5a15.34,15.34,0,0,1,11.15-4.32,20.3,20.3,0,0,1,2.32.13A23.57,23.57,0,0,0,20.68,18.9Z" fill="#ffffff"/>
    <path d="M57.58,33.28a.55.55,0,0,0-.38-.15L35.46,34.35a.49.49,0,0,0-.44.32.5.5,0,0,0,.11.53l5.48,5.48c-.28.32-.55.61-.82.88-6.65,6.66-17.68,7.35-27.46,1.72a.5.5,0,0,0-.62.11.5.5,0,0,0,0,.64,34.9,34.9,0,0,0,2.73,3.08,29.93,29.93,0,0,0,20.8,9.13A20.43,20.43,0,0,0,49.9,50.46l.24-.25,5.52,5.51a.49.49,0,0,0,.85-.32l1.21-21.74A.49.49,0,0,0,57.58,33.28Zm-2,20.95-5.09-5.09a.45.45,0,0,0-.36-.15.52.52,0,0,0-.36.16l-.57.61c-8.47,8.46-23.75,7-34.06-3.35-.35-.35-.68-.7-1-1.07C23.68,49.86,34,48.73,40.5,42.27c.38-.39.78-.82,1.17-1.3a.48.48,0,0,0,0-.67l-5-5L56.7,34.16Z" fill="#ffffff"/>
    <path d="M29.82,51.16a.49.49,0,0,0,.38.5,22.17,22.17,0,0,0,5,.59h0a16.36,16.36,0,0,0,11.85-4.61l.49-.53L50,44.45l2.12,2.12a.49.49,0,0,0,.85-.32l.47-8.35a.48.48,0,0,0-.53-.52l-8.34.46a.5.5,0,0,0-.44.32.49.49,0,0,0,.11.53L46,40.44,44,42.89c-.45.55-.91,1-1.36,1.5a22.8,22.8,0,0,1-12.39,6.29A.49.49,0,0,0,29.82,51.16Zm13.5-6.06a20.12,20.12,0,0,0,1.43-1.57l2.33-2.8a.5.5,0,0,0,0-.68l-1.27-1.27,6.67-.38-.37,6.68-1.7-1.71a.5.5,0,0,0-.37-.14.52.52,0,0,0-.36.16l-2.82,3c-.15.17-.31.34-.47.5a15.34,15.34,0,0,1-11.15,4.32,20.3,20.3,0,0,1-2.32-.13A23.57,23.57,0,0,0,43.32,45.1Z" fill="#ffffff"/>
  </g>
</svg>
