<svg id="Layer_1" data-name="Layer 1" xmlns="http://www.w3.org/2000/svg" viewBox="0 0 48 48"><path d="M41,19a2.961,2.961,0,0,0-.358-1.391l.269-1.07a11.412,11.412,0,0,0-.58-7.2l-.462-1.1A8.845,8.845,0,0,0,32.153,2.9,10.9,10.9,0,0,0,22.314.276L15.979,1.745A11.345,11.345,0,0,0,8.112,8.313L7.671,9.335a11.426,11.426,0,0,0-.581,7.209l.268,1.065A2.961,2.961,0,0,0,7,19a3,3,0,0,0-3,3v3a3,3,0,0,0,3,3h.03a3.014,3.014,0,0,0,1.916,2.423l1.175.441a8.924,8.924,0,0,0,2.86,5.259L15,37.942V43a5.006,5.006,0,0,0,5,5h8a5.006,5.006,0,0,0,5-5V37.941l2.016-1.816a8.923,8.923,0,0,0,2.863-5.262l1.175-.44A3.014,3.014,0,0,0,40.97,28H41a3,3,0,0,0,3-3V22A3,3,0,0,0,41,19ZM9.508,10.126l.441-1.021a9.34,9.34,0,0,1,6.477-5.411l6.338-1.469A8.894,8.894,0,0,1,31.033,4.6a1,1,0,0,0,.707.293,6.846,6.846,0,0,1,6.289,4.139l.462,1.1a9.408,9.408,0,0,1,.48,5.931l-.028.11A2.98,2.98,0,0,0,38,16H32.873a8.718,8.718,0,0,0-2.166-3.707,1,1,0,0,0-1.539.152A10.229,10.229,0,0,1,23.863,16H10a2.952,2.952,0,0,0-.943.167l-.027-.106A9.416,9.416,0,0,1,9.508,10.126ZM30.782,16H28.387a10.185,10.185,0,0,0,1.632-1.413A6.352,6.352,0,0,1,30.782,16ZM6,25V22a1,1,0,0,1,1-1v5A1,1,0,0,1,6,25ZM31,43a3,3,0,0,1-3,3H20a3,3,0,0,1-3-3V39.743l1.12,1.009a8.814,8.814,0,0,0,11.759,0L31,39.743Zm2.681-8.363-5.141,4.63a6.814,6.814,0,0,1-9.081,0l-5.143-4.633a6.9,6.9,0,0,1-1.928-2.921l2.921,1.1A2.978,2.978,0,0,0,16.362,33H18.93a3,3,0,0,0,2.5-1.336l.812-1.219A1,1,0,0,1,23.07,30h1.86a1,1,0,0,1,.832.445l.812,1.219A3,3,0,0,0,29.07,33h2.568a2.978,2.978,0,0,0,1.053-.191l2.921-1.095A6.912,6.912,0,0,1,33.681,34.637ZM39,27.614a1,1,0,0,1-.649.936l-6.363,2.387a.994.994,0,0,1-.35.063H29.07a1,1,0,0,1-.832-.445l-.812-1.219A3,3,0,0,0,24.93,28H23.07a3,3,0,0,0-2.5,1.336l-.812,1.219A1,1,0,0,1,18.93,31H16.362a.973.973,0,0,1-.35-.064L9.649,28.551A1.007,1.007,0,0,1,9,27.614V19a1,1,0,0,1,1-1H38a1,1,0,0,1,1,1ZM42,25a1,1,0,0,1-1,1V21a1,1,0,0,1,1,1Z" id="id_101" style="fill: rgb(242, 246, 247);"></path><path d="M36,22H12a1,1,0,0,0,0,2H36a1,1,0,0,0,0-2Z" id="id_102" style="fill: rgb(247, 250, 250);"></path></svg>